<?xml version="1.0" encoding="UTF-8" standalone="no"?>
<svg width="243px" height="27px" viewBox="0 0 243 27" version="1.1" xmlns="http://www.w3.org/2000/svg" xmlns:xlink="http://www.w3.org/1999/xlink">
    <!-- Generator: Sketch 39.1 (31720) - http://www.bohemiancoding.com/sketch -->
    <title>Page 1</title>
    <desc>Created with Sketch.</desc>
    <defs>
        <polygon id="path-1" points="7.14987379e-20 0.327733333 7.14987379e-20 19.5357333 16.6890724 19.5357333 16.6890724 0.327733333 0 0.327733333"></polygon>
    </defs>
    <g id="Page-1" stroke="none" stroke-width="1" fill="none" fill-rule="evenodd">
        <g id="Login-" transform="translate(-56.000000, -25.000000)">
            <g id="Page-1" transform="translate(56.000000, 24.000000)">
                <polygon id="Fill-1" fill="#FFFFFF" points="70.8383438 7.71826667 75.1643978 18.6236 79.4864951 7.71826667 81.7471222 7.71826667 81.7471222 21.0876 80.0035114 21.0876 80.0035114 15.8796 80.1696951 10.2569333 75.8278141 21.0876 74.4930681 21.0876 70.1604195 10.2876 70.3318789 15.8796 70.3318789 21.0876 68.5869492 21.0876 68.5869492 7.71826667"></polygon>
                <path d="M87.2831524,16.1442667 L91.7740714,16.1442667 L89.5266335,9.89226667 L87.2831524,16.1442667 Z M92.2963632,17.5882667 L86.7542659,17.5882667 L85.5131632,21.0882667 L83.7102011,21.0882667 L88.7616605,7.7176 L90.2876497,7.7176 L95.3430659,21.0882667 L93.5572497,21.0882667 L92.2963632,17.5882667 Z" id="Fill-2" fill="#FFFFFF"></path>
                <polygon id="Fill-3" fill="#FFFFFF" points="100.491202 14.8673333 98.8689319 16.5673333 98.8689319 21.0886667 97.1279589 21.0886667 97.1279589 7.718 98.8689319 7.718 98.8689319 14.3273333 104.747354 7.718 106.854986 7.718 101.65317 13.622 107.26517 21.0886667 105.174683 21.0886667"></polygon>
                <polygon id="Fill-4" fill="#FFFFFF" points="116.265736 14.9062667 110.533715 14.9062667 110.533715 19.6449333 117.191617 19.6449333 117.191617 21.0876 108.795379 21.0876 108.795379 7.71826667 117.105888 7.71826667 117.105888 9.15693333 110.533715 9.15693333 110.533715 13.4662667 116.265736 13.4662667"></polygon>
                <polygon id="Fill-5" fill="#FFFFFF" points="126.219485 7.71826667 130.545539 18.6236 134.868956 7.71826667 137.129583 7.71826667 137.129583 21.0876 135.385972 21.0876 135.385972 15.8796 135.552156 10.2569333 131.206318 21.0876 129.87421 21.0876 125.540242 10.2876 125.713021 15.8796 125.713021 21.0876 123.970729 21.0876 123.970729 7.71826667"></polygon>
                <polygon id="Fill-6" fill="#FFFFFF" points="147.684627 14.9062667 141.952605 14.9062667 141.952605 19.6449333 148.614465 19.6449333 148.614465 21.0876 140.210314 21.0876 140.210314 7.71826667 148.522141 7.71826667 148.522141 9.15693333 141.952605 9.15693333 141.952605 13.4662667 147.684627 13.4662667"></polygon>
                <polygon id="Fill-7" fill="#FFFFFF" points="162.681395 15.1833333 157.134022 15.1833333 157.134022 21.0886667 155.386454 21.0886667 155.386454 7.718 163.580897 7.718 163.580897 9.15666667 157.134022 9.15666667 157.134022 13.7433333 162.681395 13.7433333"></polygon>
                <path d="M166.417364,16.1442667 L170.910921,16.1442667 L168.660845,9.89226667 L166.417364,16.1442667 Z M171.429256,17.5882667 L165.892435,17.5882667 L164.642099,21.0882667 L162.84837,21.0882667 L167.897191,7.7176 L169.421862,7.7176 L174.483872,21.0882667 L172.692781,21.0882667 L171.429256,17.5882667 Z" id="Fill-8" fill="#FFFFFF"></path>
                <g id="Group-30" transform="translate(0.000000, 0.803467)">
                    <path d="M178.006573,14.0272 L178.006573,18.8418667 L180.888411,18.8418667 C181.698227,18.8418667 182.332627,18.6272 182.806119,18.2045333 C183.278292,17.7792 183.513059,17.1912 183.513059,16.4458667 C183.513059,14.8392 182.643892,14.0272 180.914789,14.0272 L178.006573,14.0272 L178.006573,14.0272 Z M178.006573,12.6165333 L180.641773,12.6165333 C181.40147,12.6165333 182.014768,12.4245333 182.471114,12.0352 C182.930097,11.6498667 183.156951,11.1245333 183.156951,10.4632 C183.156951,9.7232 182.943286,9.18986667 182.525189,8.85653333 C182.093903,8.52053333 181.452908,8.35253333 180.587697,8.35253333 L178.006573,8.35253333 L178.006573,12.6165333 L178.006573,12.6165333 Z M176.262962,20.2845333 L176.262962,6.9152 L180.587697,6.9152 C182.021362,6.9152 183.100238,7.2112 183.825643,7.8112 C184.547092,8.41386667 184.912432,9.30453333 184.912432,10.4778667 C184.912432,11.1018667 184.735697,11.6552 184.384865,12.1338667 C184.035351,12.6112 183.553946,12.9885333 182.948562,13.2512 C183.662097,13.4512 184.229232,13.8365333 184.642054,14.4018667 C185.054876,14.9672 185.261946,15.6418667 185.261946,16.4258667 C185.261946,17.6258667 184.882097,18.5685333 184.109211,19.2525333 C183.344238,19.9378667 182.258768,20.2845333 180.848843,20.2845333 L176.262962,20.2845333 L176.262962,20.2845333 Z" id="Fill-9" fill="#FFFFFF"></path>
                    <path d="M197.155297,6.9148 L197.155297,16.0028 C197.148703,17.2668 196.758303,18.2988 195.980141,19.1001333 C195.200659,19.9028 194.142886,20.3534667 192.816054,20.4494667 L192.350476,20.4668 C190.902303,20.4668 189.750886,20.0708 188.888314,19.2841333 C188.031016,18.4934667 187.595773,17.4068 187.578627,16.0228 L187.578627,6.9148 L189.303773,6.9148 L189.303773,15.9681333 C189.303773,16.9348 189.571514,17.6828 190.096443,18.2228 C190.624011,18.7574667 191.379751,19.0254667 192.350476,19.0254667 C193.338346,19.0254667 194.095405,18.7574667 194.616378,18.2241333 C195.139989,17.6934667 195.406411,16.9414667 195.406411,15.9734667 L195.406411,6.9148 L197.155297,6.9148 Z" id="Fill-11" fill="#FFFFFF"></path>
                    <polygon id="Fill-13" fill="#FFFFFF" points="201.662966 18.8421333 207.926512 18.8421333 207.926512 20.2848 199.908804 20.2848 199.908804 6.91546667 201.662966 6.91546667"></polygon>
                    <path d="M217.769604,13.1646667 C217.769604,11.5846667 217.450426,10.366 216.819983,9.51266667 C216.188221,8.66866667 215.311139,8.246 214.178188,8.246 C213.074253,8.246 212.206404,8.66866667 211.573323,9.51266667 C210.94288,10.366 210.618426,11.542 210.596004,13.0486667 L210.596004,14.0273333 C210.596004,15.5646667 210.915183,16.774 211.558815,17.6513333 C212.198491,18.53 213.074253,18.9686667 214.199291,18.9686667 C215.32301,18.9686667 216.194815,18.558 216.812069,17.726 C217.430642,16.8966667 217.745864,15.7086667 217.769604,14.1633333 L217.769604,13.1646667 Z M219.496069,14.0273333 C219.496069,15.3406667 219.279766,16.482 218.844523,17.4593333 C218.40928,18.438 217.792026,19.1793333 216.992761,19.6966667 C216.194815,20.2086667 215.263658,20.466 214.199291,20.466 C213.154707,20.466 212.227507,20.2086667 211.426923,19.6926667 C210.619745,19.1766667 209.995896,18.438 209.550102,17.4766667 C209.101669,16.522 208.878772,15.4113333 208.862945,14.1473333 L208.862945,13.1846667 C208.862945,11.8993333 209.087161,10.7646667 209.52768,9.77933333 C209.973475,8.79266667 210.590729,8.038 211.397907,7.51266667 C212.207723,6.99266667 213.133604,6.73 214.178188,6.73 C215.234642,6.73 216.169756,6.986 216.976934,7.506 C217.789388,8.02466667 218.40928,8.774 218.844523,9.75266667 C219.279766,10.7406667 219.496069,11.8806667 219.496069,13.1846667 L219.496069,14.0273333 Z" id="Fill-15" fill="#FFFFFF"></path>
                    <path d="M231.426878,6.9148 L231.426878,16.0028 C231.417645,17.2668 231.031202,18.2988 230.25304,19.1001333 C229.474878,19.9028 228.417105,20.3534667 227.088954,20.4494667 L226.620737,20.4668 C225.169926,20.4668 224.01851,20.0708 223.158575,19.2841333 C222.302597,18.4934667 221.864716,17.4068 221.852845,16.0228 L221.852845,6.9148 L223.577991,6.9148 L223.577991,15.9681333 C223.577991,16.9348 223.843094,17.6828 224.368024,18.2228 C224.899548,18.7574667 225.647375,19.0254667 226.620737,19.0254667 C227.604651,19.0254667 228.36171,18.7574667 228.891916,18.2241333 C229.412889,17.6934667 229.674035,16.9414667 229.674035,15.9734667 L229.674035,6.9148 L231.426878,6.9148 Z" id="Fill-17" fill="#FFFFFF"></path>
                    <path d="M238.080296,14.3241333 C236.578048,13.8868 235.488621,13.3548 234.812015,12.7188 C234.130134,12.0881333 233.791172,11.3041333 233.791172,10.3734667 C233.791172,9.32413333 234.203994,8.45346667 235.036231,7.76413333 C235.872426,7.07213333 236.952621,6.72946667 238.282091,6.72946667 C239.188188,6.72946667 240.00328,6.9068 240.715496,7.26146667 C241.425075,7.61613333 241.979021,8.1068 242.368102,8.7308 C242.757183,9.35613333 242.955021,10.0401333 242.955021,10.7774667 L241.203496,10.7774667 C241.203496,9.96813333 240.946307,9.33346667 240.438523,8.8668 C239.928102,8.40413333 239.213248,8.17613333 238.282091,8.17613333 C237.424794,8.17613333 236.753464,8.36146667 236.274696,8.74813333 C235.790653,9.12813333 235.547972,9.6628 235.547972,10.3414667 C235.547972,10.8868 235.780102,11.3521333 236.23381,11.7241333 C236.694112,12.1054667 237.470956,12.4481333 238.570934,12.7601333 C239.664318,13.0734667 240.529529,13.4201333 241.149421,13.7961333 C241.769312,14.1721333 242.228296,14.6068 242.532966,15.1121333 C242.831042,15.6148 242.98008,16.2041333 242.98008,16.8854667 C242.98008,17.9721333 242.567258,18.8374667 241.727107,19.4868 C240.889594,20.1401333 239.776426,20.4668 238.373096,20.4668 C237.469637,20.4668 236.616296,20.2908 235.831539,19.9388 C235.041507,19.5868 234.437442,19.1041333 234.01275,18.4934667 C233.585421,17.8814667 233.370437,17.1854667 233.370437,16.4108 L235.121961,16.4108 C235.121961,17.2161333 235.425312,17.8508 236.008275,18.3241333 C236.59915,18.7908 237.386545,19.0254667 238.373096,19.0254667 C239.296339,19.0254667 240.00328,18.8361333 240.493918,18.4574667 C240.97928,18.0761333 241.227237,17.5588 241.227237,16.9028 C241.227237,16.2494667 241.001702,15.7441333 240.545356,15.3841333 C240.091648,15.0228 239.27128,14.6721333 238.080296,14.3241333" id="Fill-19" fill="#FFFFFF"></path>
                    <g id="Group-23" transform="translate(0.000000, 3.666667)">
                        <mask id="mask-2" fill="white">
                            <use xlink:href="#path-1"></use>
                        </mask>
                        <g id="Clip-22"></g>
                        <polygon id="Fill-21" fill="#FFFFFF" mask="url(#mask-2)" points="5.34241297 0.327733333 8.31525622 15.0584 8.37065081 15.0584 11.3725103 0.327733333 16.6890724 0.327733333 16.6890724 19.5357333 13.3100022 19.5357333 13.3100022 3.6184 13.2546076 3.6184 9.84784 19.5357333 6.83938595 19.5357333 3.43261838 3.6184 3.3785427 3.6184 3.3785427 19.5357333 -0.000527567568 19.5357333 -0.000527567568 0.327733333"></polygon>
                    </g>
                    <polygon id="Fill-24" fill="#FFFFFF" points="49.3923265 3.9944 49.3923265 7.28506667 40.7982508 7.28506667 40.7982508 11.8184 48.1380346 11.8184 48.1380346 14.8810667 40.7982508 14.8810667 40.7982508 23.2024 37.4191805 23.2024 37.4191805 3.9944"></polygon>
                    <polygon id="Fill-26" fill="#FFFFFF" points="24.0599827 3.9944 27.0341449 18.7250667 27.0882205 18.7250667 30.0913989 3.9944 35.4066422 3.9944 35.4066422 23.2024 32.0275719 23.2024 32.0275719 7.28506667 31.9734962 7.28506667 28.5654097 23.2024 25.5582746 23.2024 22.151507 7.28506667 22.0974314 7.28506667 22.0974314 23.2024 18.7183611 23.2024 18.7183611 3.9944"></polygon>
                    <polygon id="Fill-28" fill="#FFFFFF" points="58.5863784 26.6666667 59.3922378 26.6666667 59.3922378 0.529333333 58.5863784 0.529333333"></polygon>
                </g>
            </g>
        </g>
    </g>
</svg>