<?xml version="1.0" encoding="UTF-8"?>
<svg width="214px" height="55px" viewBox="0 0 214 55" version="1.1" xmlns="http://www.w3.org/2000/svg" xmlns:xlink="http://www.w3.org/1999/xlink">
    <!-- Generator: Sketch 40.2 (33826) - http://www.bohemiancoding.com/sketch -->
    <title>Mcore3</title>
    <desc>Created with Sketch.</desc>
    <defs></defs>
    <g id="Page-1" stroke="none" stroke-width="1" fill="none" fill-rule="evenodd">
        <path d="M10.568,54 C11.336,54 12.872,54.192 12.872,53.04 C12.872,52.144 8.84,40.624 8.84,23.92 C8.84,22.576 8.776,14.704 10.888,14.704 C12.872,14.704 14.984,21.168 15.624,22.576 C21.32,35.696 19.208,41.712 24.584,41.712 C28.872,41.712 26.696,35.696 32.072,22.576 C32.712,21.04 35.144,14.704 37,14.704 C39.112,14.704 38.92,22.576 38.92,23.92 C38.92,40.624 35.272,52.144 35.272,53.04 C35.272,54.192 36.808,54 37.576,54 L45.768,54 C47.368,54 49.288,55.216 49.288,31.216 C49.288,-0.4 45.96,0.752 44.872,0.752 L39.88,0.752 C37.384,0.752 36.424,0.688 32.84,5.04 C26.056,13.296 25.672,17.968 24.712,17.968 C23.432,17.968 23.048,13.296 17.032,5.04 C13.896,0.752 13,0.752 10.504,0.752 L4.616,0.752 C3.528,0.752 0.2,-0.4 0.2,31.216 C0.2,55.216 2.12,54 3.72,54 L10.568,54 Z M68.936,54.96 C76.488,54.96 81.544,50.224 81.544,42.544 C81.544,39.92 80.904,38.768 80.584,38.768 C80.008,38.768 78.408,45.104 71.496,45.104 C65.416,45.104 62.472,39.92 62.472,33.712 C62.472,28.336 64.84,19.632 71.432,19.632 C76.616,19.632 76.36,24.368 77.832,24.368 C80.2,24.368 81.608,20.656 81.608,18.736 C81.608,15.088 77.576,12.08 72.008,12.08 C59.4,12.08 53.832,24.56 53.832,35.568 C53.832,44.912 58.312,54.96 68.936,54.96 L68.936,54.96 Z M101.128,54.96 C108.488,54.96 117.192,48.496 117.192,33.456 C117.192,23.152 112.264,12.08 101.128,12.08 C89.992,12.08 85.064,23.152 85.064,33.456 C85.064,48.496 93.768,54.96 101.128,54.96 L101.128,54.96 Z M101.128,44.272 C94.664,44.272 93,36.976 93,31.856 C93,26.8 94.792,19.632 101.128,19.632 C107.464,19.632 109.256,26.8 109.256,31.856 C109.256,36.976 107.592,44.272 101.128,44.272 L101.128,44.272 Z M130.184,54 C130.888,54 132.296,54 132.36,52.976 C132.36,51.824 130.184,46.448 130.184,33.712 C130.184,29.872 130.568,21.232 135.944,21.232 C140.36,21.232 139.464,25.52 140.232,25.52 C142.152,25.52 145.8,22.832 145.8,18.352 C145.8,14.896 143.112,12.08 139.848,12.08 C138.12,12.08 136.584,13.104 135.24,14.064 C133.896,15.088 132.808,16.112 131.848,16.112 C130.568,16.112 130.44,14.896 130.312,13.936 C130.248,12.72 129.096,13.04 128.136,13.04 L122.824,13.04 C121.032,13.104 121.544,17.072 121.544,34.8 C121.544,55.984 122.696,54 125.064,54 L130.184,54 Z M162.952,54.96 C170.632,54.96 176.904,50.288 176.904,42.16 C176.904,41.648 176.712,38.32 175.752,38.32 C174.856,38.32 174.856,46.32 164.36,46.32 C161.16,46.32 156.296,44.144 156.296,41.136 C156.296,34.48 176.904,37.36 176.904,23.6 C176.904,16.048 170.952,12.08 163.912,12.08 C155.336,12.08 146.76,19.76 146.76,35.248 C146.76,45.488 151.496,54.96 162.952,54.96 L162.952,54.96 Z M163.592,19.632 C166.024,19.632 168.968,21.36 168.968,24.496 C168.968,27.76 157.32,30.32 156.552,30.32 C155.72,30.32 155.4,29.616 155.4,28.912 C155.4,25.2 158.408,19.632 163.592,19.632 L163.592,19.632 Z M187.336,2.096 C186.12,2.096 184.136,1.776 184.136,3.504 C184.136,4.912 185.48,12.592 186.44,12.592 C187.656,12.592 192.968,10.288 198.024,10.288 C199.176,10.288 201.096,10.224 201.096,11.376 C201.096,13.296 188.936,23.92 188.936,26.416 C188.936,27.44 190.344,27.76 191.176,27.76 C198.344,27.76 203.848,30.32 203.848,36.208 C203.848,39.728 200.84,43.568 197.192,43.568 C191.816,43.568 189.96,39.024 188.616,39.024 C187.976,39.024 181.96,47.216 181.96,47.728 C181.96,48.56 187.144,54.96 196.424,54.96 C206.792,54.96 213.192,46.704 213.192,36.72 C213.192,24.304 202.568,23.472 202.568,21.808 C202.568,20.4 212.232,14.448 212.232,3.952 C212.232,1.648 210.12,2.096 208.456,2.096 L187.336,2.096 Z" id="Mcore3" fill="#2AAEFF"></path>
    </g>
</svg>